<mxfile host="app.diagrams.net" modified="2022-09-15T09:07:22.591Z" agent="5.0 (Windows NT 10.0; Win64; x64) AppleWebKit/537.36 (KHTML, like Gecko) Chrome/104.0.0.0 Safari/537.36" etag="M7Cm5WlX84IRwgHFv3JN" version="20.3.0" type="github">
  <diagram id="ouA3MOxQzRfjYVpWQLvX" name="第 1 页">
    <mxGraphModel dx="1796" dy="642" grid="0" gridSize="10" guides="1" tooltips="1" connect="1" arrows="1" fold="1" page="1" pageScale="1" pageWidth="2339" pageHeight="3300" math="0" shadow="0">
      <root>
        <mxCell id="0" />
        <mxCell id="1" parent="0" />
        <mxCell id="jdSQazr9PwTsx0irfd7z-2" value="" style="shape=table;html=1;whiteSpace=wrap;startSize=0;container=1;collapsible=0;childLayout=tableLayout;" vertex="1" parent="1">
          <mxGeometry x="310" y="400" width="630" height="40" as="geometry" />
        </mxCell>
        <mxCell id="jdSQazr9PwTsx0irfd7z-3" value="" style="shape=tableRow;horizontal=0;startSize=0;swimlaneHead=0;swimlaneBody=0;top=0;left=0;bottom=0;right=0;collapsible=0;dropTarget=0;fillColor=none;points=[[0,0.5],[1,0.5]];portConstraint=eastwest;" vertex="1" parent="jdSQazr9PwTsx0irfd7z-2">
          <mxGeometry width="630" height="40" as="geometry" />
        </mxCell>
        <mxCell id="jdSQazr9PwTsx0irfd7z-4" value="&lt;font style=&quot;font-size: 15px;&quot;&gt;True(1)&lt;/font&gt;" style="shape=partialRectangle;html=1;whiteSpace=wrap;connectable=0;fillColor=#d5e8d4;top=0;left=0;bottom=0;right=0;overflow=hidden;strokeColor=#82b366;" vertex="1" parent="jdSQazr9PwTsx0irfd7z-3">
          <mxGeometry width="270" height="40" as="geometry">
            <mxRectangle width="270" height="40" as="alternateBounds" />
          </mxGeometry>
        </mxCell>
        <mxCell id="jdSQazr9PwTsx0irfd7z-15" value="&lt;font style=&quot;font-size: 15px;&quot;&gt;Fake(0)&lt;/font&gt;" style="shape=partialRectangle;html=1;whiteSpace=wrap;connectable=0;fillColor=#f8cecc;top=0;left=0;bottom=0;right=0;overflow=hidden;strokeColor=#b85450;" vertex="1" parent="jdSQazr9PwTsx0irfd7z-3">
          <mxGeometry x="270" width="130" height="40" as="geometry">
            <mxRectangle width="130" height="40" as="alternateBounds" />
          </mxGeometry>
        </mxCell>
        <mxCell id="jdSQazr9PwTsx0irfd7z-18" value="&lt;font style=&quot;font-size: 15px;&quot;&gt;Unlabel(-2)&lt;/font&gt;" style="shape=partialRectangle;html=1;whiteSpace=wrap;connectable=0;fillColor=#dae8fc;top=0;left=0;bottom=0;right=0;overflow=hidden;strokeColor=#6c8ebf;" vertex="1" parent="jdSQazr9PwTsx0irfd7z-3">
          <mxGeometry x="400" width="230" height="40" as="geometry">
            <mxRectangle width="230" height="40" as="alternateBounds" />
          </mxGeometry>
        </mxCell>
        <mxCell id="jdSQazr9PwTsx0irfd7z-21" value="" style="shape=curlyBracket;whiteSpace=wrap;html=1;rounded=1;flipH=1;fontSize=15;rotation=-90;" vertex="1" parent="1">
          <mxGeometry x="435.5" y="253.5" width="20" height="269" as="geometry" />
        </mxCell>
      </root>
    </mxGraphModel>
  </diagram>
</mxfile>
